<svg id="Layer_1" xmlns="http://www.w3.org/2000/svg" viewBox="0 0 321 80"><style>.st0{fill:#cb7cc0}.st1{fill:#1e1e1e}</style><g id="XMLID_60_"><path id="XMLID_261_" class="st0" d="M0 0v80h60V0H0zm34 64h-9v-9h9v9zm15-39H34.4v9.8L25.2 25H11v-8h38v8z"/><g id="XMLID_62_"><path id="XMLID_197_" class="st1" d="M91.3 30h5v4.6h-5v12.3c0 2.3.6 2.9 2.9 2.9.7 0 1.4 0 2.1-.2v5.3c-1.2.2-2.6.2-4 .2-4.2 0-7.8-1-7.8-5.9V34.6h-4.1V30h4.1v-7.4h6.8V30z"/><path id="XMLID_194_" class="st1" d="M105.2 44.1c.2 4.3 2.3 6.3 6.1 6.3 2.7 0 4.9-1.7 5.4-3.2h6c-1.9 5.9-6 8.4-11.6 8.4-7.8 0-12.7-5.4-12.7-13.1 0-7.4 5.1-13.1 12.7-13.1 8.4 0 12.5 7.1 12 14.7h-17.9zm11.1-4.3c-.6-3.5-2.1-5.3-5.4-5.3-4.3 0-5.6 3.4-5.7 5.3h11.1z"/><path id="XMLID_192_" class="st1" d="M133.4 41.8L125.3 30h7.8l4.4 6.5 4.3-6.5h7.5l-8.2 11.6 9.2 13.2h-7.8l-5.2-7.8-5.2 7.8h-7.6l8.9-13z"/><path id="XMLID_190_" class="st1" d="M161.5 30h5v4.6h-5v12.3c0 2.3.6 2.9 2.9 2.9.7 0 1.4 0 2.1-.2v5.3c-1.2.2-2.6.2-4 .2-4.2 0-7.8-1-7.8-5.9V34.6h-4.1V30h4.1v-7.4h6.8V30z"/><path id="XMLID_187_" class="st1" d="M181.8 29.4c7.8 0 12.9 5.2 12.9 13.1 0 7.9-5 13.1-12.9 13.1-7.8 0-12.8-5.2-12.8-13.1 0-8 5.1-13.1 12.8-13.1zm0 21c4.7 0 6-4 6-7.9 0-4-1.4-8-6-8s-6 4-6 8c0 3.9 1.4 7.9 6 7.9z"/><path id="XMLID_168_" class="st1" d="M199.3 20.6h6.8v34.3h-6.8V20.6z"/><path id="XMLID_71_" class="st1" d="M223.5 29.4c7.8 0 12.9 5.2 12.9 13.1 0 7.9-5 13.1-12.9 13.1-7.8 0-12.8-5.2-12.8-13.1 0-8 5.1-13.1 12.8-13.1zm0 21c4.7 0 6-4 6-7.9 0-4-1.4-8-6-8s-6 4-6 8c0 3.9 1.4 7.9 6 7.9z"/><path id="XMLID_68_" class="st1" d="M264.7 53.3c0 4.1-1.4 11-12.9 11-4.9 0-10.6-2.3-10.9-8h6.8c.6 2.5 2.7 3.4 5.1 3.4 3.8 0 5.5-2.6 5.5-6.1v-3.3h-.1c-1.5 2.6-4.5 3.8-7.4 3.8-7.4 0-10.6-5.7-10.6-12.5 0-6.4 3.7-12.3 10.7-12.3 3.3 0 5.8 1.1 7.4 4h.1V30h6.5v23.3zm-6.5-11.2c0-4-1.4-7.6-5.8-7.6-3.8 0-5.5 3.4-5.5 7.1 0 3.6 1.3 7.4 5.5 7.4 3.9 0 5.8-3.3 5.8-6.9z"/><path id="XMLID_65_" class="st1" d="M275.8 44.1c.2 4.3 2.3 6.3 6.1 6.3 2.7 0 4.9-1.7 5.4-3.2h6c-1.9 5.9-6 8.4-11.6 8.4-7.8 0-12.7-5.4-12.7-13.1 0-7.4 5.1-13.1 12.7-13.1 8.4 0 12.5 7.1 12 14.7h-17.9zm11.1-4.3c-.6-3.5-2.1-5.3-5.4-5.3-4.3 0-5.6 3.4-5.7 5.3h11.1z"/><path id="XMLID_63_" class="st1" d="M297.7 30h6.5v3.5h.1c1.7-2.8 4.7-4.1 7.6-4.1 7.2 0 9.1 4.1 9.1 10.2v15.3h-6.8v-14c0-4.1-1.2-6.1-4.4-6.1-3.7 0-5.3 2.1-5.3 7.1v13h-6.8V30z"/></g></g></svg>